<svg width="24" height="24" viewBox="0 0 24 24" fill="none" xmlns="http://www.w3.org/2000/svg">
<circle cx="12" cy="12" r="12" fill="#1071B7" fill-opacity="0.24"/>
<path d="M11.9998 6C13.1754 5.99993 14.3251 6.34522 15.3061 6.99297C16.2871 7.64072 17.0563 8.5624 17.5179 9.64353C17.9796 10.7247 18.1135 11.9176 17.903 13.0742C17.6925 14.2307 17.1469 15.3 16.3339 16.1491C15.5209 16.9983 14.4764 17.5899 13.33 17.8504C12.1837 18.111 10.9861 18.029 9.88589 17.6148C8.78572 17.2005 7.83149 16.4722 7.14172 15.5202C6.45194 14.5683 6.05702 13.4347 6.006 12.2602L6 11.9998L6.006 11.7394C6.0731 10.1948 6.73391 8.73565 7.85061 7.66634C8.96732 6.59703 10.4537 6.00009 11.9998 6Z" fill="#2090FA"/>
</svg>
