<svg width="31" height="31" viewBox="0 0 31 31" fill="none" xmlns="http://www.w3.org/2000/svg">
<path d="M25.1969 18.7163C26.042 17.1301 26.4824 15.3598 26.4789 13.5625C26.4789 7.49881 21.5634 2.58337 15.4997 2.58337C9.43596 2.58337 4.52052 7.49881 4.52052 13.5625C4.51597 16.1525 5.4315 18.6599 7.10386 20.6376L7.11678 20.6538L7.1284 20.6667H7.10386L13.619 27.5836C13.8605 27.84 14.1519 28.0442 14.4753 28.1839C14.7987 28.3235 15.1472 28.3955 15.4994 28.3955C15.8516 28.3955 16.2001 28.3235 16.5234 28.1839C16.8468 28.0442 17.1382 27.84 17.3797 27.5836L23.8955 20.6667H23.871L23.8813 20.6544L23.8826 20.6531C23.9291 20.5976 23.9754 20.5416 24.0215 20.4852C24.4695 19.9347 24.8632 19.3428 25.1969 18.7163ZM15.5029 17.7598C14.4752 17.7598 13.4896 17.3516 12.7629 16.6249C12.0362 15.8981 11.6279 14.9125 11.6279 13.8848C11.6279 12.8571 12.0362 11.8715 12.7629 11.1448C13.4896 10.4181 14.4752 10.0098 15.5029 10.0098C16.5306 10.0098 17.5163 10.4181 18.243 11.1448C18.9697 11.8715 19.3779 12.8571 19.3779 13.8848C19.3779 14.9125 18.9697 15.8981 18.243 16.6249C17.5163 17.3516 16.5306 17.7598 15.5029 17.7598Z" fill="#FA7127"/>
</svg>
