<svg width="32" height="25" viewBox="0 0 32 25" fill="none" xmlns="http://www.w3.org/2000/svg">
<path d="M15.6633 4.54825C13.0039 2.58174 9.55587 1.49595 5.98331 1.50001C4.28608 1.50001 2.65662 1.7394 1.14331 2.18095V21.1327C2.69795 20.6805 4.33475 20.4503 5.98331 20.4518C9.70204 20.4518 13.0949 21.6048 15.6633 23.5M15.6633 4.54825C18.3226 2.58163 21.7707 1.49582 25.3433 1.50001C27.0405 1.50001 28.67 1.7394 30.1833 2.18095V21.1327C28.6287 20.6805 26.9919 20.4503 25.3433 20.4518C21.7707 20.4477 18.3227 21.5335 15.6633 23.5M15.6633 4.54825V23.5Z" fill="#F0ECDD"/>
<path d="M15.6633 4.54825C13.0039 2.58174 9.55587 1.49595 5.98331 1.50001C4.28608 1.50001 2.65662 1.7394 1.14331 2.18095V21.1327C2.69795 20.6805 4.33475 20.4503 5.98331 20.4518C9.70204 20.4518 13.0949 21.6048 15.6633 23.5M15.6633 4.54825C18.3226 2.58163 21.7707 1.49582 25.3433 1.50001C27.0405 1.50001 28.67 1.7394 30.1833 2.18095V21.1327C28.6287 20.6805 26.9919 20.4503 25.3433 20.4518C21.7707 20.4477 18.3227 21.5335 15.6633 23.5M15.6633 4.54825V23.5" stroke="#1A1616" stroke-width="2.01114" stroke-linecap="round" stroke-linejoin="round"/>
</svg>
