<svg width="41" height="41" viewBox="0 0 41 41" fill="none" xmlns="http://www.w3.org/2000/svg">
<circle cx="20.5" cy="20.5" r="20.5" fill="#F0ECDD"/>
<path d="M16.9374 20.6875H16.3437C15.0319 20.6875 13.9687 21.7525 13.9687 23.067V25.433C13.9687 26.7471 15.0319 27.8125 16.3437 27.8125H16.9374C17.5932 27.8125 18.1249 27.2796 18.1249 26.6228V21.8772C18.1249 21.22 17.5932 20.6875 16.9374 20.6875ZM24.6562 20.6875H24.0624C23.4067 20.6875 22.8749 21.22 22.8749 21.8772V26.6228C22.8749 27.2796 23.4067 27.8125 24.0624 27.8125H24.6562C25.968 27.8125 27.0312 26.7471 27.0312 25.433V23.067C27.0312 21.7529 25.968 20.6875 24.6562 20.6875ZM20.4999 11.1875C15.19 11.1875 11.1695 15.6083 10.9999 20.6875V24.8438C10.9999 25.1718 11.2656 25.4375 11.5937 25.4375H12.1874C12.5155 25.4375 12.7812 25.1718 12.7812 24.8438V20.6875C12.7812 16.4322 16.2446 12.9762 20.4999 12.9754C24.7553 12.9762 28.2187 16.4322 28.2187 20.6875V24.8438C28.2187 25.1718 28.4844 25.4375 28.8124 25.4375H29.4062C29.7342 25.4375 29.9999 25.1718 29.9999 24.8438V20.6875C29.8303 15.6083 25.8099 11.1875 20.4999 11.1875Z" fill="#1A1616"/>
</svg>
