<svg width="21" height="25" viewBox="0 0 21 25" fill="none" xmlns="http://www.w3.org/2000/svg">
<path d="M10.7439 24.0517L10.7438 24.0518C10.5389 24.2329 10.2809 24.3299 10.0172 24.3296C9.75383 24.3294 9.49631 24.2322 9.2918 24.0511C9.29157 24.0509 9.29133 24.0507 9.29109 24.0505L8.90713 23.7077C8.90675 23.7073 8.90637 23.707 8.90599 23.7066C3.34006 18.6947 0.688936 14.2426 0.688936 10.2889C0.688936 7.73186 1.67638 5.28324 3.42822 3.48079C5.17943 1.67898 7.55045 0.670381 10.0186 0.670381C12.4867 0.670381 14.8577 1.67898 16.6089 3.48079C18.3607 5.28324 19.3482 7.73186 19.3482 10.2889C19.3482 14.3342 16.5724 18.9016 10.7439 24.0517ZM10.0186 5.66126C8.81444 5.66126 7.66363 6.15359 6.81818 7.02346C5.97336 7.89269 5.50202 9.06765 5.50202 10.2889C5.50202 11.5102 5.97336 12.6851 6.81818 13.5544C7.66363 14.4242 8.81444 14.9166 10.0186 14.9166C11.2227 14.9166 12.3735 14.4242 13.2189 13.5544C14.0637 12.6851 14.5351 11.5102 14.5351 10.2889C14.5351 9.06765 14.0637 7.89269 13.2189 7.02346C12.3735 6.15359 11.2227 5.66126 10.0186 5.66126Z" stroke="#F0ECDD" stroke-width="1.34076"/>
</svg>
