<svg width="21" height="25" viewBox="0 0 21 25" fill="none" xmlns="http://www.w3.org/2000/svg">
<path d="M11.1279 24.0603L11.1279 24.0603C10.9229 24.2415 10.665 24.3384 10.4013 24.3382C10.1379 24.3379 9.88035 24.2407 9.67584 24.0596C9.6756 24.0594 9.67536 24.0592 9.67513 24.059L9.29117 23.7162C9.29079 23.7159 9.29041 23.7155 9.29003 23.7152C3.72409 18.7032 1.07297 14.2512 1.07297 10.2975C1.07297 7.7404 2.06041 5.29179 3.81225 3.48933C5.56346 1.68753 7.93448 0.678926 10.4026 0.678926C12.8707 0.678926 15.2417 1.68753 16.9929 3.48933C18.7448 5.29179 19.7322 7.7404 19.7322 10.2975C19.7322 14.3428 16.9564 18.9102 11.1279 24.0603ZM10.4026 5.6698C9.19847 5.6698 8.04766 6.16214 7.20221 7.03201C6.3574 7.90123 5.88605 9.07619 5.88605 10.2975C5.88605 11.5187 6.3574 12.6937 7.20221 13.5629C8.04766 14.4328 9.19847 14.9251 10.4026 14.9251C11.6067 14.9251 12.7575 14.4328 13.603 13.5629C14.4478 12.6937 14.9191 11.5187 14.9191 10.2975C14.9191 9.07619 14.4478 7.90123 13.603 7.03201C12.7575 6.16214 11.6067 5.6698 10.4026 5.6698Z" fill="#F0ECDD" stroke="#1A1616" stroke-width="1.34076"/>
</svg>
