<svg width="32" height="31" viewBox="0 0 32 31" fill="none" xmlns="http://www.w3.org/2000/svg">
<path d="M18.4025 7.98265C18.4025 7.54625 18.637 7.15164 18.9081 6.80375C19.1867 6.44726 19.3481 6.02438 19.3481 5.57077C19.3481 4.29722 18.0785 3.26584 16.5113 3.26584C14.9441 3.26584 13.6744 4.29845 13.6744 5.57077C13.6744 6.02438 13.8358 6.44726 14.1145 6.80375C14.3855 7.15164 14.6201 7.54625 14.6201 7.98265C14.6206 8.08806 14.5994 8.1925 14.5578 8.28977C14.5161 8.38704 14.4548 8.47516 14.3775 8.54889C14.3003 8.62262 14.2086 8.68046 14.108 8.71897C14.0073 8.75748 13.8998 8.77589 13.7917 8.77308C12.0375 8.72381 10.2863 8.60077 8.54292 8.4043C8.77743 10.3871 8.91234 12.3995 8.94007 14.4364C8.94124 14.5433 8.92063 14.6493 8.87943 14.7483C8.83823 14.8473 8.77727 14.9373 8.70008 15.0131C8.62289 15.089 8.53102 15.1491 8.4298 15.19C8.32858 15.2309 8.22003 15.2518 8.11046 15.2515C7.66287 15.2515 7.25814 15.0228 6.90133 14.7585C6.53995 14.4833 6.09529 14.3324 5.63674 14.3295C4.33053 14.3295 3.27271 15.5674 3.27271 17.0954C3.27271 18.6234 4.33179 19.8613 5.63674 19.8613C6.10198 19.8613 6.5357 19.704 6.90133 19.4323C7.25814 19.168 7.66287 18.9394 8.11046 18.9394C8.50131 18.9394 8.81021 19.259 8.78121 19.6401C8.62438 21.7243 8.35419 23.799 7.97177 25.8554C9.88569 26.0889 11.8273 26.2352 13.7917 26.2905C13.8998 26.2934 14.0073 26.2749 14.108 26.2364C14.2086 26.1979 14.3003 26.1401 14.3775 26.0664C14.4548 25.9926 14.5161 25.9045 14.5578 25.8072C14.5994 25.71 14.6206 25.6055 14.6201 25.5001C14.6201 25.0637 14.3855 24.6691 14.1145 24.3212C13.8322 23.9689 13.6775 23.5353 13.6744 23.0882C13.6744 21.8159 14.9453 20.7833 16.5113 20.7833C18.0785 20.7833 19.3481 21.8159 19.3481 23.0882C19.3481 23.5418 19.1867 23.9647 18.9081 24.3212C18.637 24.6691 18.4038 25.0637 18.4038 25.5001C18.4038 25.9095 18.753 26.2365 19.1729 26.2131C21.4669 26.0816 23.7514 25.823 26.0153 25.4386C26.3579 23.5188 26.6028 21.5835 26.7491 19.6401C26.7557 19.5502 26.7432 19.46 26.7124 19.3751C26.6816 19.2902 26.6331 19.2124 26.57 19.1467C26.5069 19.0809 26.4306 19.0285 26.3457 18.9928C26.2609 18.9572 26.1695 18.939 26.0771 18.9394C25.6295 18.9394 25.2248 19.168 24.868 19.4323C24.5023 19.704 24.0686 19.8613 23.6034 19.8613C22.2984 19.8613 21.2393 18.6234 21.2393 17.0954C21.2393 15.5674 22.2984 14.3295 23.6034 14.3295C24.0699 14.3295 24.5023 14.4869 24.868 14.7585C25.2248 15.0228 25.6295 15.2515 26.0783 15.2515C26.1879 15.2518 26.2965 15.2309 26.3977 15.19C26.4989 15.1491 26.5908 15.089 26.668 15.0131C26.7452 14.9373 26.8061 14.8473 26.8473 14.7483C26.8885 14.6493 26.9091 14.5433 26.908 14.4364C26.8777 12.2334 26.7219 10.0337 26.4415 7.84742C24.0636 8.26784 21.6378 8.55304 19.1716 8.69441C19.0723 8.69978 18.973 8.68529 18.8797 8.65184C18.7864 8.61838 18.7011 8.56668 18.6291 8.49989C18.557 8.43311 18.4998 8.35266 18.4608 8.26349C18.4218 8.17433 18.402 8.07957 18.4025 7.98265Z" stroke="#F0ECDD" stroke-width="2.05122" stroke-linecap="round" stroke-linejoin="round"/>
</svg>
