<svg width="31" height="30" viewBox="0 0 31 30" fill="none" xmlns="http://www.w3.org/2000/svg">
<path d="M18.3851 7.60875C18.3851 7.165 18.6236 6.76375 18.8992 6.41C19.1825 6.0475 19.3466 5.6175 19.3466 5.15625C19.3466 3.86125 18.0556 2.8125 16.462 2.8125C14.8684 2.8125 13.5774 3.8625 13.5774 5.15625C13.5774 5.6175 13.7415 6.0475 14.0248 6.41C14.3005 6.76375 14.5389 7.165 14.5389 7.60875C14.5395 7.71594 14.518 7.82214 14.4756 7.92105C14.4332 8.01995 14.3709 8.10956 14.2924 8.18453C14.2138 8.2595 14.1206 8.31831 14.0182 8.35747C13.9159 8.39664 13.8065 8.41535 13.6966 8.4125C11.9129 8.3624 10.1322 8.23728 8.35946 8.0375C8.59792 10.0538 8.7351 12.1 8.76331 14.1713C8.7645 14.2799 8.74354 14.3877 8.70164 14.4883C8.65975 14.589 8.59776 14.6805 8.51927 14.7576C8.44078 14.8347 8.34737 14.8959 8.24444 14.9375C8.14152 14.9791 8.03114 15.0003 7.91972 15C7.46459 15 7.05305 14.7675 6.69023 14.4988C6.32276 14.2189 5.87061 14.0655 5.40433 14.0625C4.07613 14.0625 3.00049 15.3213 3.00049 16.875C3.00049 18.4288 4.07741 19.6875 5.40433 19.6875C5.87741 19.6875 6.31844 19.5275 6.69023 19.2513C7.05305 18.9825 7.46459 18.75 7.91972 18.75C8.31715 18.75 8.63126 19.075 8.60177 19.4625C8.4423 21.5819 8.16756 23.6915 7.77869 25.7825C9.72485 26.02 11.6992 26.1688 13.6966 26.225C13.8065 26.2279 13.9159 26.2091 14.0182 26.17C14.1206 26.1308 14.2138 26.072 14.2924 25.997C14.3709 25.9221 14.4332 25.8325 14.4756 25.7335C14.518 25.6346 14.5395 25.5284 14.5389 25.4213C14.5389 24.9775 14.3005 24.5763 14.0248 24.2225C13.7378 23.8642 13.5805 23.4234 13.5774 22.9688C13.5774 21.675 14.8697 20.625 16.462 20.625C18.0556 20.625 19.3466 21.675 19.3466 22.9688C19.3466 23.43 19.1825 23.86 18.8992 24.2225C18.6236 24.5763 18.3864 24.9775 18.3864 25.4213C18.3864 25.8375 18.7415 26.17 19.1684 26.1463C21.5011 26.0125 23.8241 25.7496 26.1261 25.3588C26.4744 23.4065 26.7235 21.4387 26.8723 19.4625C26.879 19.3712 26.8663 19.2794 26.8349 19.1931C26.8036 19.1068 26.7543 19.0277 26.6902 18.9608C26.626 18.8939 26.5484 18.8407 26.4621 18.8044C26.3759 18.7681 26.2829 18.7496 26.1889 18.75C25.7338 18.75 25.3223 18.9825 24.9595 19.2513C24.5877 19.5275 24.1466 19.6875 23.6736 19.6875C22.3466 19.6875 21.2697 18.4288 21.2697 16.875C21.2697 15.3213 22.3466 14.0625 23.6736 14.0625C24.1479 14.0625 24.5877 14.2225 24.9595 14.4988C25.3223 14.7675 25.7338 15 26.1902 15C26.3016 15.0003 26.412 14.9791 26.515 14.9375C26.6179 14.8959 26.7113 14.8347 26.7898 14.7576C26.8683 14.6805 26.9303 14.589 26.9722 14.4883C27.014 14.3877 27.035 14.2799 27.0338 14.1713C27.003 11.9311 26.8446 9.6943 26.5595 7.47125C24.1415 7.89875 21.6748 8.18875 19.1672 8.3325C19.0662 8.33796 18.9652 8.32323 18.8704 8.28921C18.7755 8.2552 18.6888 8.20262 18.6155 8.13471C18.5423 8.0668 18.484 7.98499 18.4444 7.89433C18.4048 7.80366 18.3846 7.7073 18.3851 7.60875Z" fill="#F0ECDD"/>
</svg>
