<svg width="26" height="25" viewBox="0 0 26 25" fill="none" xmlns="http://www.w3.org/2000/svg">
<path d="M24.5235 25L14.9679 15.4455C14.2049 16.0955 13.3274 16.5985 12.3356 16.9545C11.3437 17.3105 10.3467 17.4886 9.34465 17.4886C6.90106 17.4886 4.83286 16.6428 3.14005 14.9512C1.44724 13.2596 0.60083 11.1921 0.60083 8.74886C0.60083 6.30557 1.44622 4.23711 3.137 2.54349C4.82777 0.849866 6.89496 0.00203804 9.33855 3.65896e-06C11.7821 -0.00203072 13.8514 0.844272 15.5462 2.53891C17.241 4.23355 18.0885 6.30201 18.0885 8.74428C18.0885 9.80419 17.9008 10.83 17.5254 11.8218C17.15 12.8136 16.6566 13.6619 16.0452 14.3668L25.6008 23.9197L24.5235 25ZM9.34618 15.9612C11.3706 15.9612 13.0797 15.2645 14.4734 13.8709C15.8672 12.4774 16.564 10.768 16.564 8.74275C16.564 6.71753 15.8672 5.00865 14.4734 3.61612C13.0797 2.22358 11.3706 1.52681 9.34618 1.52579C7.32172 1.52477 5.61212 2.22155 4.21738 3.61612C2.82265 5.01068 2.12578 6.71956 2.1268 8.74275C2.12782 10.7659 2.82468 12.4748 4.21738 13.8694C5.61009 15.264 7.31918 15.9607 9.34465 15.9597" fill="#F0ECDD"/>
</svg>
